<svg xmlns="http://www.w3.org/2000/svg" xmlns:xlink="http://www.w3.org/1999/xlink" version="1.1" x="0px" y="0px" viewBox="0 0 20 25" style="enable-background:new 0 0 20 20;" xml:space="preserve"><g><path d="M16.5,11.4c-0.7-0.7-2-0.7-2.8,0l-1,1c-0.2,0.2-0.5,0.2-0.7,0L7.4,7.9c-0.2-0.2-0.2-0.5,0-0.7l1-1c0.4-0.4,0.6-0.9,0.6-1.4   c0-0.5-0.2-1-0.6-1.4L5.7,0.6c-0.7-0.7-2-0.7-2.8,0l-1,1c-2.5,2.5-2.5,6.6,0,9l7.3,7.3c2.5,2.5,6.5,2.5,9,0l1-1   c0.8-0.8,0.8-2,0-2.8L16.5,11.4z M16.9,16.7c-1.7,1.7-4.5,1.7-6.3,0L3.3,9.3c-1.7-1.7-1.7-4.5,0-6.3l1-1l2.8,2.8l-1,1   c-1,1-1,2.5,0,3.5l4.6,4.6c0.9,0.9,2.6,0.9,3.5,0l1-1l2.8,2.8L16.9,16.7z"/><path d="M18,9.1h2c0-4.9-4-8.9-8.9-8.9v2C14.9,2.2,18,5.3,18,9.1z"/><path d="M11.1,4.2v2c1.6,0,2.9,1.3,2.9,2.9h2C16.1,6.4,13.9,4.2,11.1,4.2z"/></g><text x="0" y="35" fill="#000000" font-size="5px" font-weight="bold" font-family="'Helvetica Neue', Helvetica, Arial-Unicode, Arial, Sans-serif">Created by Vectors Market</text><text x="0" y="40" fill="#000000" font-size="5px" font-weight="bold" font-family="'Helvetica Neue', Helvetica, Arial-Unicode, Arial, Sans-serif">from the Noun Project</text></svg>