<svg xmlns="http://www.w3.org/2000/svg" xmlns:xlink="http://www.w3.org/1999/xlink" version="1.1" x="0px" y="0px" viewBox="0 0 48 60" style="enable-background:new 0 0 48 48;" xml:space="preserve"><style type="text/css">
	.st0{fill:#010101;}
</style><g><polygon points="22.2,14.9 15.6,28.7 20.2,36.7 27,24.9  "/><path d="M17.4,13.9c0-2.3-1.9-4.2-4.2-4.2S9,11.6,9,13.9s1.9,4.2,4.2,4.2S17.4,16.2,17.4,13.9z"/><path d="M24,0C10.8,0,0,10.8,0,24s10.8,24,24,24s24-10.8,24-24S37.2,0,24,0z M23.2,46L11.5,25.7L5.6,36C3.3,32.5,2,28.4,2,24   C2,11.9,11.9,2,24,2s22,9.9,22,22c0,4.4-1.3,8.5-3.6,12l-9.8-16.8L21.3,38.7l4.2,7.3C25,46,23.5,46,23.2,46z"/></g><text x="0" y="63" fill="#000000" font-size="5px" font-weight="bold" font-family="'Helvetica Neue', Helvetica, Arial-Unicode, Arial, Sans-serif">Created by Creative Stall</text><text x="0" y="68" fill="#000000" font-size="5px" font-weight="bold" font-family="'Helvetica Neue', Helvetica, Arial-Unicode, Arial, Sans-serif">from the Noun Project</text></svg>